<mxfile host="app.diagrams.net" modified="2023-02-16T15:54:23.246Z" agent="5.0 (Windows NT 10.0; Win64; x64) AppleWebKit/537.36 (KHTML, like Gecko) Chrome/109.0.0.0 Safari/537.36" etag="9bIdfTUDHBXtUiF4wQZw" version="20.8.20" type="github">
  <diagram id="C5RBs43oDa-KdzZeNtuy" name="Page-1">
    <mxGraphModel dx="1434" dy="796" grid="1" gridSize="10" guides="1" tooltips="1" connect="1" arrows="1" fold="1" page="1" pageScale="1" pageWidth="827" pageHeight="1169" math="0" shadow="0">
      <root>
        <mxCell id="WIyWlLk6GJQsqaUBKTNV-0" />
        <mxCell id="WIyWlLk6GJQsqaUBKTNV-1" parent="WIyWlLk6GJQsqaUBKTNV-0" />
        <mxCell id="rgQOU9RRM3I8qQcvCoa0-10" value="" style="edgeStyle=orthogonalEdgeStyle;rounded=0;orthogonalLoop=1;jettySize=auto;html=1;" edge="1" parent="WIyWlLk6GJQsqaUBKTNV-1" source="rgQOU9RRM3I8qQcvCoa0-0" target="rgQOU9RRM3I8qQcvCoa0-2">
          <mxGeometry relative="1" as="geometry" />
        </mxCell>
        <mxCell id="rgQOU9RRM3I8qQcvCoa0-0" value="start" style="ellipse;whiteSpace=wrap;html=1;" vertex="1" parent="WIyWlLk6GJQsqaUBKTNV-1">
          <mxGeometry x="330" y="100" width="120" height="80" as="geometry" />
        </mxCell>
        <mxCell id="rgQOU9RRM3I8qQcvCoa0-1" value="stop" style="ellipse;whiteSpace=wrap;html=1;" vertex="1" parent="WIyWlLk6GJQsqaUBKTNV-1">
          <mxGeometry x="330" y="530" width="120" height="80" as="geometry" />
        </mxCell>
        <mxCell id="rgQOU9RRM3I8qQcvCoa0-11" value="" style="edgeStyle=orthogonalEdgeStyle;rounded=0;orthogonalLoop=1;jettySize=auto;html=1;" edge="1" parent="WIyWlLk6GJQsqaUBKTNV-1" source="rgQOU9RRM3I8qQcvCoa0-2" target="rgQOU9RRM3I8qQcvCoa0-5">
          <mxGeometry relative="1" as="geometry" />
        </mxCell>
        <mxCell id="rgQOU9RRM3I8qQcvCoa0-2" value="pobierz wartość a&lt;br&gt;ustaw b=2" style="rounded=0;whiteSpace=wrap;html=1;" vertex="1" parent="WIyWlLk6GJQsqaUBKTNV-1">
          <mxGeometry x="330" y="220" width="120" height="60" as="geometry" />
        </mxCell>
        <mxCell id="rgQOU9RRM3I8qQcvCoa0-12" value="" style="edgeStyle=orthogonalEdgeStyle;rounded=0;orthogonalLoop=1;jettySize=auto;html=1;" edge="1" parent="WIyWlLk6GJQsqaUBKTNV-1" source="rgQOU9RRM3I8qQcvCoa0-5" target="rgQOU9RRM3I8qQcvCoa0-1">
          <mxGeometry relative="1" as="geometry" />
        </mxCell>
        <mxCell id="rgQOU9RRM3I8qQcvCoa0-5" value="wyświetl a+b" style="rounded=1;whiteSpace=wrap;html=1;" vertex="1" parent="WIyWlLk6GJQsqaUBKTNV-1">
          <mxGeometry x="330" y="360" width="120" height="60" as="geometry" />
        </mxCell>
      </root>
    </mxGraphModel>
  </diagram>
</mxfile>
